<svg id="レイヤー_1" data-name="レイヤー 1" xmlns="http://www.w3.org/2000/svg" xmlns:xlink="http://www.w3.org/1999/xlink" viewBox="0 0 5831 1415"><defs><style>.cls-1{fill:url(#名称未設定グラデーション_167);}.cls-2{fill:url(#名称未設定グラデーション_169);}.cls-3{fill:#333;}</style><linearGradient id="名称未設定グラデーション_167" x1="627.99" y1="524.84" x2="1221.16" y2="867.31" gradientUnits="userSpaceOnUse"><stop offset="0" stop-color="#8bcff5"/><stop offset="0.15" stop-color="#92cdf5"/><stop offset="0.37" stop-color="#a6c6f5"/><stop offset="0.64" stop-color="#c7bbf5"/><stop offset="0.94" stop-color="#f5acf5"/><stop offset="1" stop-color="#ffa9f5"/></linearGradient><linearGradient id="名称未設定グラデーション_169" x1="29.79" y1="519.58" x2="781" y2="953.29" gradientUnits="userSpaceOnUse"><stop offset="0" stop-color="#3fa9f5"/><stop offset="0.43" stop-color="#67bdf5"/><stop offset="0.79" stop-color="#81caf5"/><stop offset="1" stop-color="#8bcff5"/></linearGradient></defs><path class="cls-1" d="M681.84,431.57v627.55h428.58L1338,431.57Zm119.08,583.77H711.36V907.23h89.56Zm.32-431.52H711.68V475.71h89.56Zm140.09,431.84H851.77V907.55h89.56Zm.33-431.52H852.1V476h89.56ZM1086.54,1015H997V906.91h89.55Zm.33-431.52H997.31V475.39h89.56Zm55.5-.53V474.86h89.56V583Z"/><polygon class="cls-2" points="632.44 396.64 658.12 396.64 658.12 308.02 518.33 308.02 518.33 225.59 291.72 225.59 291.72 308.02 151.93 308.02 151.93 396.64 177.61 396.64 177.61 1077.52 151.93 1077.52 151.93 1166.14 658.12 1166.14 658.12 1077.52 632.44 1077.52 632.44 396.64"/><path class="cls-3" d="M1493.57,868.12l98.84-69.3,18.34,5.1c38.72,64.2,84.58,91.71,147.76,91.71,64.19,0,108-38.72,108-87.64S1839,728.51,1713.67,675.52c-141.64-59.1-192.59-122.28-192.59-222.14,0-110,95.79-195.64,240.48-195.64,107,0,187.5,44.83,237.43,122.28l-97.82,71.32-18.35-4.07c-28.53-42.8-66.23-68.27-121.26-68.27-59.1,0-92.73,30.57-92.73,73.36,0,39.74,20.38,62.16,148.78,118.21C1968.42,637.82,2014.27,701,2014.27,797.8c0,123.3-106,220.11-254.74,220.11C1643.36,1017.91,1554.71,971,1493.57,868.12Z"/><path class="cls-3" d="M2146.74,770.29c0-143.68,99.86-248.63,246.6-248.63,93.74,0,174.24,39.74,223.16,125.33l-100.88,59.1-9.18-2c-31.59-50.95-65.21-70.31-110.05-70.31-65.21,0-115.14,51-115.14,135.52,0,83.56,48.91,135.53,116.16,135.53,46.88,0,81.52-19.36,111.07-70.31l9.17-2,99.86,58.08c-48.91,86.62-130.43,127.38-226.21,127.38C2242.52,1017.91,2146.74,916,2146.74,770.29Z"/><path class="cls-3" d="M2884.48,791.69v6.11c0,72.35,48.91,118.21,115.15,118.21,45.85,0,79.48-23.44,106-64.2l8.16-3.06,107,41.78c-42.8,81.52-119.22,127.38-225.2,127.38-151.83,0-249.65-103.94-249.65-247.62,0-145.72,100.88-248.63,246.6-248.63,141.64,0,240.48,95.78,240.48,249.65a166.59,166.59,0,0,1-1,20.38Zm2-71.33h210.93c-4.07-64.2-43.81-101.9-102.92-101.9C2937.47,618.46,2894.67,655.14,2886.52,720.36Z"/><path class="cls-3" d="M3528.49,541v75.4c38.72-62.16,92.73-94.76,160-94.76,103.94,0,166.1,64.19,166.1,181.38V998.55H3719V747.87c0-79.48-26.49-110-83.56-110-62.15,0-104.95,54-104.95,136.55V998.55H3395V541Z"/><path class="cls-3" d="M4153.13,791.69v6.11c0,72.35,48.91,118.21,115.15,118.21,45.85,0,79.48-23.44,106-64.2l8.15-3.06,107,41.78c-42.8,81.52-119.23,127.38-225.2,127.38-151.83,0-249.66-103.94-249.66-247.62,0-145.72,100.89-248.63,246.6-248.63,141.64,0,240.48,95.78,240.48,249.65a168.22,168.22,0,0,1-1,20.38Zm2-71.33H4366.1c-4.08-64.2-43.82-101.9-102.92-101.9C4206.12,618.46,4163.32,655.14,4155.17,720.36Z"/><path class="cls-3" d="M4663.65,541H4790v82.54c38.72-71.33,87.63-101.9,143.68-101.9,52,0,90.69,27.51,110,93.74l-111.07,62.16-9.17-3.06c-10.19-24.45-22.42-32.6-43.82-32.6-40.76,0-80.5,52-80.5,147.75v208.9H4663.65Z"/><path class="cls-3" d="M5302.56,962.88,5114,541H5272l98.84,301.62h2l108-301.62h151.83L5326,1220.69H5179.26Z"/></svg>